<svg xmlns="http://www.w3.org/2000/svg" height="145.613" width="387.373" xml:space="preserve">
  <path d="m277.552 72.394-16.263-29.402-16.264 29.402 15.428 26.446.836 1.426.835-1.426 15.428-26.446" fill="#918f90"/>
  <path d="m74.523 86.374 22.384-53.117h20.264v77.948h-15.032V55.528l-20.264 49.108h-14.59L47.02 55.528v55.677H31.988V33.257h20.264l22.27 53.117M199.027 44.725l-9.911 10.245c-2.34-2.56-9.021-8.575-20.157-8.575-15.256 0-24.719 11.36-24.719 25.834 0 15.926 10.69 25.726 24.719 25.726 10.914 0 17.038-4.454 18.708-6.128v-9.574H172.86v-13.25h29.505v30.842c-8.35 7.127-17.704 12.808-34.073 12.808-22.05 0-40.423-15.814-40.423-40.424 0-22.38 16.704-40.42 40.423-40.42 16.37 0 26.725 8.13 30.735 12.916" fill="#231f20"/>
  <path d="M320.69 74.424c1.22-.265 3.602-.561 6.24.294.173.065.346.127.518.184 1.396.53 2.845 1.393 4.22 2.767 2.617 2.618 3.399 5.496 3.512 7.759v1.212c-.04.824-.156 1.517-.267 2.015-1.94.43-6.796.943-10.985-3.246-4.127-4.127-3.695-8.902-3.237-10.985zm0-16.899c1.94-.42 6.81-.922 10.978 3.247l.075.079c.16.178.32.35.48.514 2.173 2.453 2.852 5.072 2.957 7.165v1.212a12.04 12.04 0 0 1-.267 2.014c-1.201.268-3.522.565-6.112-.244-.262-.1-.522-.193-.782-.276-1.354-.535-2.756-1.39-4.091-2.725-4.127-4.127-3.695-8.902-3.237-10.986zm16.32-17.013c1.794 1.149 5.48 4.22 5.48 10.059 0 3.469-1.302 5.958-2.715 7.641-.295.295-.57.592-.83.89a12.178 12.178 0 0 1-1.924 1.53 12.37 12.37 0 0 1-2.221-1.836l-.259-.28c-1.517-1.684-2.994-4.269-2.994-7.945 0-5.92 3.786-8.99 5.464-10.06zm16.317 17.01c.457 2.081.892 6.86-3.238 10.989-1.332 1.332-2.732 2.187-4.082 2.723-.264.085-.53.178-.796.28-2.59.807-4.908.51-6.106.243a12.066 12.066 0 0 1-.282-2.558v-.046c-.003-2.131.549-4.952 2.806-7.6.268-.267.536-.553.803-.86 4.167-4.098 8.965-3.598 10.895-3.17zm-3.238 27.887c-4.19 4.19-9.045 3.676-10.981 3.246-.423-1.93-.932-6.81 3.243-10.986 1.336-1.336 2.738-2.192 4.094-2.727.259-.083.518-.175.78-.276 2.583-.806 4.899-.511 6.102-.246.457 2.082.892 6.861-3.238 10.989zm-32.624-12.97c-.472 1.473-2.508 9.135 3.895 15.537 3.705 3.706 7.817 4.588 10.897 4.588 1.142 0 2.139-.12 2.923-.265v11.88a1.817 1.817 0 0 0 3.632 0V92.295c.788.146 1.795.27 2.948.27 3.081 0 7.193-.884 10.897-4.59 6.403-6.401 4.368-14.064 3.895-15.536a1.814 1.814 0 0 0-1.119-1.194c-.11-.04-1.005-.358-2.396-.56 5.939-6.32 3.978-13.702 3.515-15.144a1.814 1.814 0 0 0-1.119-1.194c-.256-.094-4.701-1.661-9.764.101a16.35 16.35 0 0 0 .452-3.877c0-9.055-6.854-13.034-8.23-13.74a1.816 1.816 0 0 0-1.638-.054c-.34.158-8.338 3.985-8.338 13.794 0 1.417.168 2.71.454 3.884-5.073-1.774-9.528-.202-9.784-.108-.548.2-.96.647-1.12 1.194-.462 1.442-2.424 8.824 3.515 15.143-1.39.203-2.285.52-2.395.561-.548.2-.96.647-1.12 1.194" fill="#c32a2e"/>
  <path d="m245.025 72.394 16.264-29.402L237.621.199h-41.74l45.479 72.06-46.101 73.305h39.456l26.574-45.298-.836-1.426-15.428-26.446" fill="#231f20"/>
  <path d="M327.321 145.564 281.22 72.259 326.699.2h-41.742L261.29 42.992l16.263 29.402-15.428 26.446-.835 1.426 26.575 45.298h39.457" fill="#c32a2e"/>
  <path d="M182.139 145.613H0V0h182.139v1.916H1.916v141.781H182.14v1.917M387.379 145.613h-48.386v-1.917h46.468V1.915h-46.468V-.001h48.386v145.614" fill="#a7a5a6"/>
  <path d="m261.29 100.266-.837-1.426-15.428-26.446 16.264-29.402 16.263 29.402-15.428 26.446-.835 1.426" fill="#b65245"/>
</svg>
