<svg xmlns="http://www.w3.org/2000/svg" viewBox="0 0 389 150" class="w-auto h-12 hidden">
    <path
        d="M2081.64 549.148 1959.67 769.66l-121.98-220.512 115.71-198.351 6.27-10.695 6.26 10.695 115.71 198.351"
        transform="matrix(.13333 0 0 -.13333 0 145.613)"
        style="fill: rgb(215, 114, 97); fill-opacity: 1; fill-rule: nonzero; stroke: none;"></path>
    <path
        d="m558.922 444.293 167.879 398.379h151.98V258.063H766.043v417.578L614.059 307.328H504.633L352.648 675.641V258.063H239.91v584.609h151.981l167.031-398.379M1492.7 756.66l-74.33-76.836c-17.55 19.199-67.66 64.313-151.18 64.313-114.42 0-185.39-85.203-185.39-193.758 0-119.445 80.18-192.941 185.39-192.941 81.86 0 127.79 33.406 140.31 45.957v71.804h-111.05v99.379h221.29V343.266c-62.63-53.457-132.78-96.067-255.55-96.067-165.37 0-303.174 118.606-303.174 303.18 0 167.848 125.284 303.156 303.174 303.156 122.77 0 200.44-60.972 230.51-96.875"
        transform="matrix(.13333 0 0 -.13333 0 145.613)"
        style="fill: rgb(255, 255, 255); fill-opacity: 1; fill-rule: nonzero; stroke: none;"></path>
    <path
        d="M2405.18 533.922c9.15 1.988 27.01 4.207 46.79-2.207 1.3-.488 2.6-.949 3.89-1.379 10.47-3.973 21.34-10.449 31.65-20.75 19.63-19.641 25.49-41.223 26.34-58.195v-9.09c-.3-6.184-1.17-11.379-2-15.11-14.55-3.23-50.97-7.078-82.39 24.344-30.95 30.949-27.71 66.762-24.28 82.387zm0 126.738c14.54 3.156 51.07 6.914 82.33-24.347.19-.196.37-.395.56-.594 1.2-1.34 2.4-2.625 3.6-3.856 16.3-18.398 21.39-38.039 22.18-53.738v-9.09c-.3-6.18-1.17-11.375-2-15.105-9.01-2.008-26.42-4.235-45.84 1.828a112.39 112.39 0 0 1-5.87 2.074c-10.15 4.008-20.67 10.43-30.68 20.438-30.95 30.949-27.71 66.765-24.28 82.39zm122.4 127.602c13.45-8.617 41.1-31.645 41.1-75.442 0-26.019-9.77-44.691-20.37-57.312a129.707 129.707 0 0 1-6.22-6.68c-5.44-5.293-10.66-9.066-14.43-11.469-4.26 2.739-10.42 7.25-16.66 13.77-.64.695-1.29 1.398-1.94 2.094-11.38 12.636-22.46 32.023-22.46 59.597 0 44.391 28.4 67.418 40.98 75.442zm122.37-127.578c3.43-15.61 6.69-51.446-24.28-82.414-9.99-9.989-20.49-16.407-30.62-20.422a112.49 112.49 0 0 1-5.97-2.106c-19.42-6.051-36.81-3.82-45.79-1.816-1.02 4.535-2.08 11.199-2.12 19.179v.344c-.02 15.989 4.12 37.141 21.05 57.008 2.01 1.996 4.02 4.141 6.02 6.445 31.25 30.739 67.24 26.985 81.71 23.782zm-24.28-209.149c-31.43-31.422-67.84-27.574-82.36-24.351-3.17 14.48-6.99 51.082 24.32 82.402 10.02 10.019 20.54 16.434 30.71 20.449 1.94.625 3.88 1.309 5.85 2.07 19.37 6.043 36.74 3.836 45.76 1.844 3.43-15.613 6.69-51.457-24.28-82.414zm-244.68 97.27c-3.54-11.047-18.81-68.508 29.21-116.524 27.79-27.793 58.63-34.414 81.73-34.414 8.56 0 16.04.906 21.92 1.992v-89.101c0-7.52 6.1-13.625 13.62-13.625s13.62 6.105 13.62 13.625v89.129c5.91-1.094 13.46-2.02 22.11-2.02 23.11 0 53.95 6.629 81.73 34.414 48.02 48.016 32.76 105.489 29.21 116.524a13.604 13.604 0 0 1-8.39 8.957c-.83.304-7.54 2.683-17.97 4.207 44.54 47.39 29.83 102.758 26.36 113.574a13.604 13.604 0 0 1-8.39 8.957c-1.92.703-35.26 12.457-73.23-.762 2.14 8.801 3.39 18.473 3.39 29.082 0 67.907-51.41 97.75-61.73 103.051a13.622 13.622 0 0 1-12.28.402c-2.55-1.187-62.54-29.89-62.54-103.453 0-10.632 1.26-20.328 3.41-29.132-38.05 13.304-71.46 1.515-73.38.812a13.596 13.596 0 0 1-8.4-8.957c-3.47-10.816-18.18-66.184 26.36-113.574-10.42-1.524-17.14-3.903-17.96-4.207a13.596 13.596 0 0 1-8.4-8.957"
        transform="matrix(.13333 0 0 -.13333 0 145.613)"
        style="fill: rgb(195, 42, 46); fill-opacity: 1; fill-rule: nonzero; stroke: none;"></path>
    <path
        d="m1837.69 549.148 121.98 220.512-177.51 320.95h-313.05l341.09-540.454L1464.44.371h295.92l199.31 339.731-6.27 10.695-115.71 198.351"
        transform="matrix(.13333 0 0 -.13333 0 145.613)"
        style="fill: rgb(255, 255, 255); fill-opacity: 1; fill-rule: nonzero; stroke: none;"></path>
    <path
        d="m2454.91.371-345.77 549.785 341.1 540.454h-313.06l-177.51-320.95 121.97-220.512-115.71-198.351-6.26-10.695L2158.98.372h295.93"
        transform="matrix(.13333 0 0 -.13333 0 145.613)"
        style="fill: rgb(195, 42, 46); fill-opacity: 1; fill-rule: nonzero; stroke: none;"></path>
    <path
        d="M1366.04 0H0v1092.11h1366.04v-14.37H14.371V14.379H1366.04V0M2905.34 0h-362.89v14.379h348.51V1077.74h-348.51v14.37h362.89V0"
        transform="matrix(.13333 0 0 -.13333 0 145.613)"
        style="fill: rgb(255, 255, 255); fill-opacity: 1; fill-rule: nonzero; stroke: none;"></path>
</svg>
